<svg width="1024" height="1024" viewBox="0 0 1024 1024" fill="none" xmlns="http://www.w3.org/2000/svg">
<path d="M360 184H352C356.4 184 360 180.4 360 176V184H664V176C664 180.4 667.6 184 672 184H664V256H736V176C736 140.7 707.3 112 672 112H352C316.7 112 288 140.7 288 176V256H360V184ZM864 256H160C142.3 256 128 270.3 128 288V320C128 324.4 131.6 328 136 328H196.4L221.1 851C222.7 885.1 250.9 912 285 912H739C773.2 912 801.3 885.2 802.9 851L827.6 328H888C892.4 328 896 324.4 896 320V288C896 270.3 881.7 256 864 256ZM731.3 840H292.7L268.5 328H755.5L731.3 840Z" fill="white"/>
</svg>
